<svg width="250" height="250" viewBox="0 0 250 250" fill="none" xmlns="http://www.w3.org/2000/svg">
<rect width="250" height="250" rx="20" fill="#AC354B"/>
<path fill-rule="evenodd" clip-rule="evenodd" d="M46.2307 65.8046C46.2307 54.9865 54.991 46.2067 65.7895 46.2067C76.588 46.2067 84.9857 54.9865 84.9857 65.8046C84.9857 72.8893 80.9877 78.8568 75.3239 82.2963V115.005H107.778C111.139 109.116 117.244 105 124.495 105C131.756 105 137.861 109.116 141.232 115.005H183.113C188.531 115.005 192.911 119.385 192.911 124.804V166.636C198.673 170.095 202.769 176.249 202.769 183.402C202.769 194.22 193.999 203 183.211 203C172.402 203 163.632 194.22 163.632 183.402C163.632 176.357 167.669 170.409 173.314 166.959V133.79H141.447C138.135 139.904 131.913 144.196 124.495 144.196C117.077 144.196 110.865 139.904 107.553 133.79H65.5249C60.1061 133.79 55.7259 129.41 55.7259 123.991V82.3061C50.1013 78.8666 46.2307 72.8893 46.2307 65.8046Z" fill="white"/>
</svg>
